<mxfile host="app.diagrams.net" modified="2023-04-29T09:47:20.454Z" agent="Mozilla/5.0 (Windows NT 10.0; Win64; x64) AppleWebKit/537.36 (KHTML, like Gecko) Chrome/112.0.0.0 Safari/537.36" version="21.2.2" etag="5rqOkOryX47X_CdJp-VW" type="device">
  <diagram id="Pff1Fqu8-uFTUFlDmxd5" name="Page-1">
    <mxGraphModel dx="794" dy="430" grid="1" gridSize="10" guides="1" tooltips="1" connect="1" arrows="1" fold="1" page="1" pageScale="1" pageWidth="827" pageHeight="1169" math="0" shadow="0">
      <root>
        <mxCell id="0" />
        <mxCell id="1" parent="0" />
        <mxCell id="P65E7yHXWWaNYCn_BCiZ-5" value="" style="edgeStyle=orthogonalEdgeStyle;rounded=0;orthogonalLoop=1;jettySize=auto;html=1;" edge="1" parent="1" source="P65E7yHXWWaNYCn_BCiZ-1" target="P65E7yHXWWaNYCn_BCiZ-2">
          <mxGeometry relative="1" as="geometry" />
        </mxCell>
        <mxCell id="P65E7yHXWWaNYCn_BCiZ-1" value="" style="ellipse;whiteSpace=wrap;html=1;aspect=fixed;" vertex="1" parent="1">
          <mxGeometry x="40" y="120" width="40" height="40" as="geometry" />
        </mxCell>
        <mxCell id="P65E7yHXWWaNYCn_BCiZ-6" value="" style="edgeStyle=orthogonalEdgeStyle;rounded=0;orthogonalLoop=1;jettySize=auto;html=1;" edge="1" parent="1" source="P65E7yHXWWaNYCn_BCiZ-2" target="P65E7yHXWWaNYCn_BCiZ-3">
          <mxGeometry relative="1" as="geometry" />
        </mxCell>
        <mxCell id="P65E7yHXWWaNYCn_BCiZ-13" style="edgeStyle=orthogonalEdgeStyle;rounded=0;orthogonalLoop=1;jettySize=auto;html=1;entryX=0.5;entryY=0;entryDx=0;entryDy=0;" edge="1" parent="1" source="P65E7yHXWWaNYCn_BCiZ-2" target="P65E7yHXWWaNYCn_BCiZ-4">
          <mxGeometry relative="1" as="geometry">
            <Array as="points">
              <mxPoint x="210" y="40" />
              <mxPoint x="620" y="40" />
            </Array>
          </mxGeometry>
        </mxCell>
        <mxCell id="P65E7yHXWWaNYCn_BCiZ-2" value="Available" style="rounded=1;whiteSpace=wrap;html=1;" vertex="1" parent="1">
          <mxGeometry x="160" y="110" width="120" height="60" as="geometry" />
        </mxCell>
        <mxCell id="P65E7yHXWWaNYCn_BCiZ-7" value="" style="edgeStyle=orthogonalEdgeStyle;rounded=0;orthogonalLoop=1;jettySize=auto;html=1;" edge="1" parent="1" source="P65E7yHXWWaNYCn_BCiZ-3" target="P65E7yHXWWaNYCn_BCiZ-4">
          <mxGeometry relative="1" as="geometry" />
        </mxCell>
        <mxCell id="P65E7yHXWWaNYCn_BCiZ-10" style="edgeStyle=orthogonalEdgeStyle;rounded=0;orthogonalLoop=1;jettySize=auto;html=1;entryX=0.5;entryY=0;entryDx=0;entryDy=0;" edge="1" parent="1" source="P65E7yHXWWaNYCn_BCiZ-3" target="P65E7yHXWWaNYCn_BCiZ-2">
          <mxGeometry relative="1" as="geometry">
            <Array as="points">
              <mxPoint x="420" y="80" />
              <mxPoint x="220" y="80" />
            </Array>
          </mxGeometry>
        </mxCell>
        <mxCell id="P65E7yHXWWaNYCn_BCiZ-12" style="edgeStyle=orthogonalEdgeStyle;rounded=0;orthogonalLoop=1;jettySize=auto;html=1;entryX=0.5;entryY=1;entryDx=0;entryDy=0;" edge="1" parent="1" source="P65E7yHXWWaNYCn_BCiZ-3" target="P65E7yHXWWaNYCn_BCiZ-2">
          <mxGeometry relative="1" as="geometry">
            <Array as="points">
              <mxPoint x="420" y="200" />
              <mxPoint x="220" y="200" />
            </Array>
          </mxGeometry>
        </mxCell>
        <mxCell id="P65E7yHXWWaNYCn_BCiZ-3" value="Booked" style="rounded=1;whiteSpace=wrap;html=1;" vertex="1" parent="1">
          <mxGeometry x="360" y="110" width="120" height="60" as="geometry" />
        </mxCell>
        <mxCell id="P65E7yHXWWaNYCn_BCiZ-14" style="edgeStyle=orthogonalEdgeStyle;rounded=0;orthogonalLoop=1;jettySize=auto;html=1;" edge="1" parent="1" source="P65E7yHXWWaNYCn_BCiZ-4">
          <mxGeometry relative="1" as="geometry">
            <mxPoint x="210" y="170" as="targetPoint" />
            <Array as="points">
              <mxPoint x="620" y="240" />
              <mxPoint x="210" y="240" />
              <mxPoint x="210" y="170" />
            </Array>
          </mxGeometry>
        </mxCell>
        <mxCell id="P65E7yHXWWaNYCn_BCiZ-4" value="Sold" style="rounded=1;whiteSpace=wrap;html=1;" vertex="1" parent="1">
          <mxGeometry x="560" y="110" width="120" height="60" as="geometry" />
        </mxCell>
        <mxCell id="P65E7yHXWWaNYCn_BCiZ-15" value="buy" style="text;html=1;align=center;verticalAlign=middle;resizable=0;points=[];autosize=1;strokeColor=none;fillColor=none;" vertex="1" parent="1">
          <mxGeometry x="500" y="110" width="40" height="30" as="geometry" />
        </mxCell>
        <mxCell id="P65E7yHXWWaNYCn_BCiZ-17" value="book" style="text;html=1;align=center;verticalAlign=middle;resizable=0;points=[];autosize=1;strokeColor=none;fillColor=none;" vertex="1" parent="1">
          <mxGeometry x="295" y="110" width="50" height="30" as="geometry" />
        </mxCell>
        <mxCell id="P65E7yHXWWaNYCn_BCiZ-18" value="timeout" style="text;html=1;align=center;verticalAlign=middle;resizable=0;points=[];autosize=1;strokeColor=none;fillColor=none;" vertex="1" parent="1">
          <mxGeometry x="290" y="50" width="60" height="30" as="geometry" />
        </mxCell>
        <mxCell id="P65E7yHXWWaNYCn_BCiZ-19" value="unbook" style="text;html=1;align=center;verticalAlign=middle;resizable=0;points=[];autosize=1;strokeColor=none;fillColor=none;" vertex="1" parent="1">
          <mxGeometry x="290" y="170" width="60" height="30" as="geometry" />
        </mxCell>
        <mxCell id="P65E7yHXWWaNYCn_BCiZ-20" value="exchange" style="text;html=1;align=center;verticalAlign=middle;resizable=0;points=[];autosize=1;strokeColor=none;fillColor=none;" vertex="1" parent="1">
          <mxGeometry x="374" y="210" width="80" height="30" as="geometry" />
        </mxCell>
        <mxCell id="P65E7yHXWWaNYCn_BCiZ-22" value="assign" style="text;html=1;align=center;verticalAlign=middle;resizable=0;points=[];autosize=1;strokeColor=none;fillColor=none;" vertex="1" parent="1">
          <mxGeometry x="390" y="10" width="60" height="30" as="geometry" />
        </mxCell>
      </root>
    </mxGraphModel>
  </diagram>
</mxfile>
